<?xml version="1.0" encoding="utf-8"?>
<!-- Generator: Adobe Illustrator 19.0.0, SVG Export Plug-In . SVG Version: 6.00 Build 0)  -->
<svg version="1.1" id="Layer_1" xmlns="http://www.w3.org/2000/svg" xmlns:xlink="http://www.w3.org/1999/xlink" x="0px" y="0px"
	 viewBox="0 0 612 792" style="enable-background:new 0 0 612 792;" xml:space="preserve">
<style type="text/css">
	.st0{display:none;}
	.st1{fill:#33283F;}
	.st2{fill:#B2B1C9;}
	.st3{fill:#3C3F6A;}
	.st4{fill:#272C4D;}
	.st5{fill:#48508D;}
	.st6{fill:#303661;}
	.st7{opacity:0.99;fill:#92DD5D;enable-background:new    ;}
	.st8{opacity:0.99;fill:#6FC73A;enable-background:new    ;}
	.st9{opacity:0.99;fill:#458A1F;enable-background:new    ;}
	.st10{opacity:0.99;fill:#6CC939;enable-background:new    ;}
	.st11{opacity:0.99;fill:#438C21;enable-background:new    ;}
	.st12{opacity:0.99;fill:#ADEE82;enable-background:new    ;}
	.st13{opacity:0.99;fill:#468622;enable-background:new    ;}
	.st14{opacity:0.99;fill:#7C3725;enable-background:new    ;}
	.st15{opacity:0.99;fill:#89432C;enable-background:new    ;}
	.st16{opacity:0.99;fill:#FFFFFF;enable-background:new    ;}
	.st17{opacity:0.99;fill:#CFFEA9;enable-background:new    ;}
	.st18{fill:#DEEDD1;fill-opacity:0.35;}
	.st19{fill:#83859B;}
	.st20{fill:#EAF6FD;}
	.st21{fill:#062F17;}
</style>
<g id="Layer_1_1_" class="st0">
	
		<image style="display:inline;overflow:visible;enable-background:new    ;" width="500" height="500" xlink:href="6B87917B.png"  transform="matrix(1 0 0 1 56 146)">
	</image>
</g>
<g id="Ship">
	<ellipse class="st1" cx="309.3" cy="574.9" rx="232.3" ry="72.6"/>
	<path class="st2" d="M546.5,548.3c1.6,5.5,0,11.4-4.1,15.3c-9.5,9-28.9,19.9-56.4,25.9c-41.5,9.1-100.8,21.5-156.6,20.8
		c-57.3-0.8-155.4-8.3-186.7-16.8c-25-6.8-49.6-10.8-65-23.9c-5.3-4.5-11.5-11.2-10.5-18.1c0.7-4.8,6-10.4,9.8-14.5
		c0,0,1.8,12,15,21c11,7.5,47.6,18.2,92.7,27.2c54.2,10.8,120,7.5,147.3,8.1c49.6,1,154.3-14,190-33.5c10.2-5.6,19-16.2,18.5-19
		C540.2,539.2,544.9,542.8,546.5,548.3z"/>
	<ellipse class="st3" cx="310.2" cy="493.5" rx="142.8" ry="25.5"/>
	<path class="st3" d="M166,494.7c0,0-68.9,12.4-84.9,33.3c-11,14.4,0.4,35.4,64.4,50.9s169.6,17,196.3,15s97.2-6.5,121.7-13.5
		s56-11.9,73-33.5c6.5-8.3,6.5-24-34.5-38s-48.5-12.3-48.5-12.3s-54.4,24.1-137.2,25.6S166,494.7,166,494.7"/>
	<path class="st4" d="M455,496.3c0,0-2.6,20.6,3.4,26c9.3,8.4,32.9,15.4,48.9,13.4s21.8-5.1,16.8-10S497.3,509,485.7,507
		c-11.7-2-22.7-5-23.7-6S455,496.3,455,496.3"/>
	<path class="st5" d="M401,516.4c0,0-0.7,21.9,14.5,35.6s19.8,21.4,29.2,22.9c9.3,1.5,22.7,2.4,32-1.2c9.3-3.6,21.3-5.6,18-9
		c-3.3-3.3-29.3-7.3-40.7-9.7c-9-1.9-30.6-12.1-34.3-18c-4.2-6.7-10.3-21.7-10.3-21.7L401,516.4z"/>
	<path class="st4" d="M168.3,497.1c0,0,1.4,25.4-7,30.1C153,532,117,537,111,535.3s-18.7-1.7-15.3-6.7c3.3-5,29-17.7,40.3-21.7
		s27.7-8.3,27.7-8.3L168.3,497.1"/>
	<path class="st6" d="M172.3,507l-2.3,26.7c0,0,53.3,13.3,94,13.7c40.7,0.3,105.9,0,105.9,0v-23c0,0-51.2,1.9-95.9,0
		C236.7,522.8,172.3,507,172.3,507z"/>
	<path class="st6" d="M406.4,575c0.6,12.9-43.7,18.3-99.3,18.3s-106.5-7.4-106.5-17.1s49.6-19.7,105.2-19.7S406,565.3,406.4,575z"/>
</g>
<g id="Allien">
	<path id="Allien_Body_Base" class="st7" d="M279.8,496.5c-0.5-3.3-0.9-8.7-0.9-8.7s-1.2,0.7-8,0.7s-18.8-7.8-21.1-10.8
		s-9.8-16.3-10.8-16s-6.8,2-9.5,0c-2.8-2-4.5-7.2-5.8-8.7s-6-5-7.5-3.3c-1,1.2-0.6,4.3-0.3,6.2c0.2,0.8-0.2,1.6-1,2l-0.5,0.2
		c-0.5,0.3-1.1,0.2-1.6,0l-7.6-4.3c0,0-0.3-3,2-3.3s3.8-1.2,3.8-1.2s4.8-3.8,8-4c1.9-0.1,6.8,4,9.7,5.8c1.5,1,3.4-0.1,3.3-1.9
		c-0.1-2-1.4-6-1.8-6.9c-0.8-2-5.3-7.3-7.3-8.5s0.3,4-1.8,5.3s-3.8,0.8-3.8,0.8l-4-11c0,0,2.5-2.3,4.5,0s4,2.5,4,2.5s5.3-1.5,8,1.5
		c2.1,2.3,6.5,10.1,8.5,13.8c0.6,1.1,2.2,2,3.4,1.5l0.8-0.6c0.3-0.6,0.4-2.9,0.4-3.6l-0.4-6.7c0,0-6-9.5-8.2-11.3s-2,3-2,3l-4-1
		l0.8-11c0,0,2-1.3,4.3,1.8s2,4.5,2,4.5s7.3,2.5,10,6c2.3,3,4.5,15.1,5.1,18.6c0.1,0.6,0.5,1.1,1,1.5l0,0c0.6,0.4,1.4,0.1,1.6-0.6
		l2.4-6.8c0,0-3.9-1.1-2.7-4.6c0.5-1.7,3-1.4,3-1.4l6.6-0.1c0,0,2.3,3.9,1.2,4.1c-0.9,0.2-2,2.3-2,2.3s-1.1,8.7-2.8,10.8
		c-1.6,2-12.7,6-12.8,7.4c-0.2,2.2,7.5,12.1,10.7,13.9c5.5,3.3,12.4,2.5,15.7-0.5l8.4-9.4c1.6-1.6,2.4-4,1.9-6.3l-1.3-6.9
		c0,0-5.5-9.8-14-14s-19.3-9.5-24.3-14s-16.5-21-17.8-30s-2.5-33.5,8.3-50.8s15.3-19.3,15.3-19.3s-6.3-8.3-11.3-9
		S224.3,325,224.3,325s4.5,0.9,4.5,5.1s-1.5,6.6-1.5,6.6l-15.8-6.5c0,0-2-3.6,3-6.3c1.4-0.8,5.3,0.8,5.3,0.8s10.2-14.4,13.5-16.3
		c11-6.3,22.5,3.5,24,7.3c0,0,28.3-17.5,52.8-17s46.9,11.9,52.8,16.8c1.8,1.5,12.9-11.2,20.3-10c7.5,1.2,17.3,18.3,17.3,18.3
		s8.3-1.7,9.6,2.6c1,3.3-9.4,7.7-13.6,9.1c-1.1,0.4-4,0.1-4.3-1.1c-0.5-2.2,1.9-6.9,3.6-8.9c2.8-3-7.5-12.5-11.5-11.8
		s-14,8.8-12.5,9.3s25,24.5,26.3,47s-8.8,50.3-22.5,56s-31.5,16.8-34,24s-3,12.5,5,21.3s13.8,5,17.8,1.8s11.5-14,11.5-14
		s-7.3,0-10.8-3.5s-6.8-8.8-5-13.3c0,0-3.8-5.1-1.4-6.3l9.2,1c0,0,0.8,2.3-0.5,3.5s-2.5,1.5-2.7,2.3s2.8,8.3,3.8,8.2s3-17.8,8.3-22
		s10.2-6.5,10.2-6.5s1.8-5.5,6-5.7l0.3,11.5c0,0-2,1-3.7,0s-2.3-3.2-2.3-3.2l-7.7,8.7c0,0-3,11.5-2.2,12.5s3.7,1.2,3.7,1.2
		s6.7-12.8,9.2-14.2c2.5-1.3,6.5-3,9.7-2.3c0,0,2.3-4.3,4.7-4c2.3,0.3,2.8,1.8,2.8,1.8l-3.5,11.7c0,0-3.2,0.2-4.3-2.5
		c-1.2-2.7-0.3-4-0.3-4s-6,1-7.7,5.5s-2.3,10.8-2.3,10.8s0.8,1,2.8-0.7s7.2-4.2,12.2-3.2s5.9,3.2,5.9,3.2l3.9,0.5l1.7,2.8l-8.7,4.8
		c0,0-3-3.2-1.7-4.7s2.5-2,2.5-2s-7-2.5-8.5-0.2s-5.3,7.2-5.3,7.2s-4.8,6.5-8.7,4.8c-3.8-1.7-3.8-1.7-3.8-1.7s-7.7,14.2-11.2,17.7
		s-13.3,10.8-20,9.7c-6.7-1.2-4.7-0.7-4.7-0.7l0.2,13.5c0,0-24.3,2.9-35.4,2.5c-10.5-0.4-27.9,3.1-29.9,0.7
		C280.2,503.7,279.8,496.5,279.8,496.5z"/>
	<g id="Dark">
		<path class="st8" d="M250.4,448.8c0,0-1.8-15.3-4.4-18.3c-4.5-5.3-7.1-4.5-7.1-4.5s4.1,5.6,5.4,9.8c1,3.4,2.7,8.5,1.8,10.7
			l-2.6,1.9c-0.7,0.5-1.4,0.3-2.3,0.2l-0.7-0.4c-0.8-0.4-1.4-1-1.8-1.8c-1.4-2.4-4.6-8-6.8-10.7c-2.7-3.4-6.7-3.8-6.7-3.8
			s3.7,4.3,6.1,7.1c2,2.3,3.3,6.1,3.5,8.3c0.2,2.3-0.4,3.7-0.4,3.7l-1.5,1c-1.1,0.8-2.8,0.6-3.7-0.4c-0.6-0.7-1.5-1.1-2.9-2
			c-2.4-1.7-4-2.8-6.7-2.7c-2.7,0.2-5,1.1-5,1.1s5.7,0.5,7.4,1.2c1.3,0.5,4.4,4.8,4.4,4.8l-0.2,3c0,0,3.2-2.2,6.1-2
			c2.9,0.2,8.2,2,8.2,2s0.7-5.3,3.6-6.4c2.8-1.2,5.2-1.8,5.2-1.8L250.4,448.8z"/>
		<path class="st8" d="M370.7,448c0,0,0-12.7,5-17.5s6.5-5.3,6.5-5.3s-4.5,6.5-5.4,9.8c-1.6,5.6-1.9,11.5-1.8,10.7l2.6,1.9
			c0.7,0.5,1.6,0.7,2.4,0.6l1.3-0.2c0,0,3.8-10.5,7.2-13.2c3.4-2.7,7.3-3.7,7.3-3.7s-4.2,3.3-6.6,6.1c-2,2.3-2.8,7-3,9.3
			s0.4,3.7,0.4,3.7l2.8,1c0,0,0.8-0.6,3.3-2.2s5.9-3,8.6-2.8s5,1.1,5,1.1s-5.7,0.5-7.4,1.2c-1.3,0.5-4.4,4.8-4.4,4.8l0.2,3
			c0,0-3.2-2.2-6.1-2s-8.2,2-8.2,2s-0.7-5.3-3.6-6.4s-6.9-2.3-6.9-2.3L370.7,448z"/>
		<path class="st9" d="M211.5,329.4c2.1-0.6,7.3-0.3,9.7,1.1s6.1,5.4,6.1,5.4l-5.3-1.4L211.5,329.4z"/>
		<path class="st8" d="M296.6,442.3c0,0,6.5,1.3,15.6,1.3s17.1-1.8,17.1-1.8s-1.7,1.3,1.2,3.8s10.8,5,10.8,5s-3.3,6.7-1.8,11.5
			s1.5,4.8,1.5,4.8l-3.3,4.3c0,0,5.8,8.8,12.8,9.4s18.5-4.9,22.1-10.9s5.1-9,5.1-9h1.8c0,0-5.6,12.5-9.3,15.2
			c-5.4,3.9-13.8,12.2-26.3,10.4c-3.2-0.5-12.1-7.6-13.4-9.3s-6.1-8.7-6.1-8.7v-15.5l-28.3-0.5V471c0,0-10.3,10.8-13.8,12.5
			S268,487,264,485.8c-5.1-1.6-17.5-14.6-18.9-17.4c-2.1-4.3-3.6-7.6-3.6-7.6l2.4-1c0,0,5.6,12,8.1,13.8s11.6,8.4,16.8,7.7
			c5.7-0.7,15.5-10.2,15.5-10.2l-4.4-5.1l3.4-4.6l-1-9.8l11.4-5.3L296.6,442.3z"/>
		<path class="st9" d="M409.5,327.9c0,0-4.1-0.9-8.1,1.5c-4,2.3-8.8,5.8-8.8,5.8h2.1l13.8-6L409.5,327.9z"/>
		<ellipse class="st10" cx="304.8" cy="487.9" rx="2.3" ry="2.2"/>
		<ellipse class="st10" cx="302" cy="476.9" rx="4" ry="3.4"/>
		<ellipse class="st10" cx="316.3" cy="476.4" rx="6.3" ry="5.4"/>
		<ellipse class="st10" cx="377.7" cy="356.9" rx="2.9" ry="2.3"/>
		<ellipse class="st10" cx="380.6" cy="345.9" rx="3.8" ry="3.4"/>
		<path class="st10" d="M372.6,345.8c0,3-2.6,5.4-5.7,5.4s-6.6-2.4-6.6-5.4s3.5-5.4,6.6-5.4C370.1,340.4,372.6,342.8,372.6,345.8z"
			/>
		<ellipse class="st10" cx="242.8" cy="356.9" rx="2.7" ry="2.3"/>
		<path class="st10" d="M243.9,346.5c0,1.6-1.5,2.9-3.4,2.9s-4.1-1.3-4.1-2.9s1.9-3.5,3.8-3.5S243.9,344.9,243.9,346.5z"/>
		<path class="st10" d="M260.4,345.6c0,2.6-3.8,5.6-6.7,5.6s-5.8-2.6-5.8-5.1s2.9-5.8,5.8-5.8S260.4,343.1,260.4,345.6z"/>
		<path class="st11" d="M333.4,407v9.3c0,0,4.7,3.7,4.8,6.5c0.2,2.8-7.7,11.2-7.7,11.2l13.2-7.7c0,0,8.1,3.2,16.3,2.8
			c8.8-0.3,17.1-5.8,17.1-5.8s16.8-13.4,19-32.1c1.2-10.1,0.9-17.1,0.9-17.1s-2.2,7.3-4.5,5.7c-2.3-1.7-11.8-9.7-11.8-9.7
			l-33.8,37.3L333.4,407z"/>
		<path class="st11" d="M288.5,407v9.3c0,0-4.7,3.7-4.8,6.5c-0.2,2.8,7.7,11.2,7.7,11.2l-13.2-7.7c0,0-8.1,3.2-16.3,2.8
			c-8.8-0.3-17.1-5.8-17.1-5.8s-16.8-13.4-19-32.1c-1.2-10.1-0.9-17.1-0.9-17.1s2.2,7.3,4.5,5.7c2.3-1.7,11.8-9.7,11.8-9.7
			l33.8,37.3L288.5,407z"/>
	</g>
	<g id="Left_Eye">
		<path class="st12" d="M288.5,381c-2.8-5.7-7.1-10.5-12.5-13.6c-3.8-2.2-7.7-3.6-11.4-4.1c-6.5-0.8-18,1.3-24.4,7.2
			c-6.4,6-10.8,15.4-10.8,23.6c0,7.8,3.6,15.4,7.6,20.6s14.6,12.2,24.1,11.8c9.5-0.4,22-6.4,25.9-16.3c3.1-8,5-16.3,3.9-22.5
			C290.6,385.7,289.6,383.3,288.5,381z"/>
		<path class="st13" d="M286.3,400.5c0,12.5-11.2,23.2-23.5,23.2c-12.3,0-29.4-13.2-29.8-25.7c-0.7-18.2,12.8-24.3,25.2-24.3
			C270.5,373.7,286.3,388,286.3,400.5z"/>
		<path class="st14" d="M238,397.6c0-11,8.5-19.9,19-19.9s24,10.3,24,21.3s-9,19.5-19.5,19.5C248.8,418.5,238,408.6,238,397.6z"/>
		<path class="st15" d="M274,406.9c0,5-4.4,10.7-14.3,10.7s-15.9-6.3-15.9-11.4s5.9-9.8,15.8-9.8C269.5,396.5,274,401.9,274,406.9z"
			/>
		<path class="st16" d="M272.3,388.3c2.2,4,1.6,8.5-0.3,9.1c-3.3,1.1-8.3-2.6-10-6.9c-1.7-4.2-1.4-9.1,2.1-9.1
			C267.8,381.4,269.2,382.6,272.3,388.3z"/>
	</g>
	<g id="Right_Eye">
		<path class="st12" d="M332.2,381c2.8-5.7,7.1-10.5,12.5-13.6c3.8-2.2,7.7-3.6,11.4-4.1c6.5-0.8,18,1.3,24.4,7.2
			c6.4,6,10.8,15.4,10.8,23.6c0,7.8-3.6,15.4-7.6,20.6S369,427,359.5,426.5c-9.5-0.4-22-6.4-25.9-16.3c-3.1-8-5-16.3-3.9-22.5
			C330.1,385.7,331.1,383.3,332.2,381z"/>
		<path class="st13" d="M334.4,400.5c0,12.5,11.2,23.2,23.5,23.2s29.4-13.2,29.8-25.7c0.7-18.2-12.8-24.3-25.2-24.3
			C350.2,373.7,334.4,388,334.4,400.5z"/>
		<path class="st14" d="M382.7,397.6c0-11-8.5-19.9-19-19.9s-24,10.3-24,21.3s9,19.5,19.5,19.5C371.9,418.5,382.7,408.6,382.7,397.6
			z"/>
		<path class="st15" d="M346.7,406.9c0,5,4.4,10.7,14.3,10.7s15.9-6.3,15.9-11.4s-5.9-9.8-15.8-9.8S346.7,401.9,346.7,406.9z"/>
		<path class="st16" d="M348.4,388.3c-2.2,4-1.6,8.5,0.3,9.1c3.3,1.1,8.3-2.6,10-6.9c1.7-4.2,1.4-9.1-2.1-9.1
			C352.9,381.4,351.6,382.6,348.4,388.3z"/>
	</g>
	<g id="LightParts">
		<path class="st17" d="M329.7,418.3c0,0-12.7,4.3-19,3.3s-21.7-3.3-21.7-3.3s11.7-9,21.7-8.7C320.7,410,329.7,418.3,329.7,418.3z"
			/>
		<path class="st17" d="M355,365.3l2.3,6.2l-12.9,6.2c0,0-2.3-2,0-6.2C346.7,367.3,355,365.3,355,365.3z"/>
		<path class="st17" d="M266.3,365.3l-2.3,6c0,0,10.3,3.7,12.7,6c2.3,2.3-3.3-8.3-3.3-8.3L266.3,365.3z"/>
		<path id="Forhead" class="st12" d="M357.3,338c0,14.2-19.8,31-46.9,31c-32.4,0-50.4-17-50.4-31.3c0-17,22.7-33.8,44.5-33.8
			C341,304,357.3,323.8,357.3,338z"/>
	</g>
	<g id="Mouth">
		<path class="st11" d="M286.3,423.2c2.8,1.3,12.9,5.5,23.8,5.8s24.9-7.3,24.9-7.3s-11,19-22.7,19
			C294.5,440.7,286.3,423.2,286.3,423.2z"/>
	</g>
	<g id="Layer_9" class="st0">
	</g>
</g>
<path class="st4" d="M387.7,515.1c-18.1-12.4-44.1-23.1-75.1-23.1c-18.3,0-42.9,10.1-54.5,15.4c-8.1,4.9-15.3,9.1-15.3,9.1l68.8,6.1
	c3.1,0.3,6.2,0.2,9.4-0.1L387.7,515.1z"/>
<g id="Back">
</g>
<g id="Glass">
	<path id="GlassFor_Allien" class="st18" d="M170.3,500.9c-1.7-0.9-2.8-2.7-2.8-4.6c-0.2-15.6,0-72.5,15.6-122.8
		c17-55,41.6-89.2,62-110c13.1-13.4,35.3-28.5,67.5-28.5c34.5,0,70.2,28.1,86.3,50.5c33,46,48.8,116,48.8,116s5.2,18.4,8,39.3
		c3.5,25.7,4.4,55-0.5,57.5c-29.3,14.8-108.3,26-134.8,26S248,519,238.1,518C226.1,516.9,184.8,508.5,170.3,500.9z"/>
</g>
<path class="st19" d="M73.3,556.5c0,0,31.9,26.1,79.2,34.7c44,8,124.9,14.8,160.5,12.8s121.6-5.3,152-14s49-13.4,64.5-21.2
	c4.3-2.2,12.8-12.3,12.8-12.3s-1.6,9.6-7.7,13.5c-18.3,12-59.3,25.7-101,30.7s-143,11.7-214.2,5c-10-0.9-46.4-7-78.7-13.3
	c-23.5-4.6-44.1-11.5-51.2-16.1C73,565.3,73.3,556.5,73.3,556.5z"/>
<path class="st20" d="M180.3,615c0,6.4-16.7,11.7-32.3,8.7c-15.2-2.9-25.7-8.8-25.7-15.2s14.3-11.1,29.7-9.5
	C167.4,600.7,180.3,608.6,180.3,615z"/>
<path class="st20" d="M481,611.3c0.7,4.4-11.4,15.8-28.7,16.4c-19,0.7-29.7-3.7-29.7-9.4c0-8.3,18.6-15.3,29.8-16.2
	C463,601.2,479.9,604.3,481,611.3z"/>
<g>
	<path class="st20" d="M342.7,643.2h-59.4c-6.6,0-12-5.4-12-12v-6.9c0-6.6,5.4-12,12-12h59.4c6.6,0,12,5.4,12,12v6.9
		C354.7,637.8,349.3,643.2,342.7,643.2z"/>
	<path class="st21" d="M342.7,643.3c0,0-3.2,0-8.9,0c-2.8,0-6.3,0-10.3,0.1c-4,0.1-8.4,0.1-13.3,0.2c-4.9,0.1-10.2,0.2-15.7,0.3
		c-2.8,0-5.7,0.1-8.6,0.1c-0.7,0-1.5,0-2.2,0c-0.8,0-1.5,0-2.3-0.1c-1.6-0.2-3.1-0.8-4.6-1.6c-2.8-1.6-5.1-4.4-6-7.7
		c-0.5-1.6-0.5-3.4-0.5-4.9c0-1.6,0-3.2,0-4.8l0-0.7l0-0.6l0-0.6l0.1-0.7c0.1-0.5,0.1-0.9,0.3-1.3c0.1-0.4,0.2-0.8,0.4-1.3
		c0.6-1.6,1.5-3.2,2.7-4.5c2.4-2.6,5.9-4.2,9.5-4.2c13-0.1,26-0.3,38.2-0.4c6.1,0,12,0,17.6,0.1c0.7,0,1.4,0,2.1,0l1,0l0.5,0l0.2,0
		l0.1,0l0.3,0c0.6,0,1.5,0.2,2.2,0.3l1.1,0.3c0.4,0.1,0.7,0.3,1,0.4c2.7,1.1,4.8,3.1,6.2,5.4c1.4,2.3,1.9,4.9,1.8,7.2
		c-0.1,2.2-0.1,4.3-0.2,6.3c0,0.6-0.1,1-0.1,1.5c-0.1,0.5-0.2,1-0.3,1.5c-0.3,0.9-0.6,1.8-1,2.6c-0.8,1.6-1.8,2.9-2.9,3.8
		c-2.2,1.9-4.4,2.7-6,2.9c-0.8,0.1-1.4,0.2-1.8,0.2C342.9,643.3,342.7,643.3,342.7,643.3z M342.7,643c0,0,0.2,0,0.6,0
		c0.4,0,1-0.1,1.7-0.2c0.4-0.1,0.8-0.2,1.2-0.3c0.4-0.2,0.9-0.3,1.4-0.6c1-0.4,2-1.1,3-2.1c1-1,1.9-2.2,2.6-3.7
		c0.3-0.8,0.6-1.6,0.7-2.5c0.1-0.4,0.1-0.9,0.2-1.3c0-0.5,0-1,0-1.4c-0.1-2-0.1-4.1-0.2-6.3c-0.1-2.1-0.7-4.2-2-6.1
		c-0.6-0.9-1.4-1.8-2.3-2.5c-0.9-0.7-1.9-1.3-3-1.7c-0.3-0.1-0.6-0.2-0.8-0.3l-0.9-0.2c-0.6-0.1-1.1-0.2-1.8-0.2l-0.4,0l-0.5,0l-1,0
		c-0.7,0-1.4,0-2.1,0c-5.6,0.1-11.5,0.1-17.6,0.1c-12.2,0-25.2-0.2-38.2-0.4c-2.9,0-5.8,1.2-7.9,3.3c-1,1.1-1.8,2.3-2.4,3.7
		c-0.1,0.3-0.3,0.7-0.3,1c-0.1,0.4-0.2,0.7-0.2,1l-0.1,0.5l0,0.6l0,0.6l0,0.5c0,1.6,0,3.2,0,4.8c0,1.6,0,3,0.4,4.4
		c0.7,2.8,2.6,5.2,5,6.7c1.2,0.7,2.6,1.2,3.9,1.4c1.4,0.2,2.9,0.2,4.3,0.2c2.9,0,5.8,0.1,8.6,0.1c5.6,0.1,10.9,0.2,15.7,0.3
		c4.9,0.1,9.3,0.2,13.3,0.2c4,0.1,7.4,0.1,10.3,0.1C339.5,643,342.7,643,342.7,643z"/>
</g>
</svg>
